<svg width="512" height="512" viewBox="0 0 512 512" fill="none" xmlns="http://www.w3.org/2000/svg">
<path d="M224.578 217.801H287.999V144.623H336.175L277.632 86.6899C266.045 75.1034 246.531 75.1034 234.945 86.6899L175.792 144.623H224.578V217.801Z" stroke="black" stroke-width="22"/>
<path d="M86.1473 275.734L144.69 333.667V175.114L86.1473 233.047C73.9509 245.243 73.9509 264.148 86.1473 275.734Z" stroke="black" stroke-width="22"/>
<path d="M426.428 233.656L367.885 175.723V333.667L426.428 275.734C438.015 264.147 438.015 245.243 426.428 233.656Z" stroke="black" stroke-width="22"/>
<path d="M287.387 291.589H224.575V365.377H176.399L234.942 423.31C246.529 434.897 266.043 434.897 277.63 423.31L336.172 365.377H287.387V291.589Z" stroke="black" stroke-width="22"/>
</svg>
